# xmcd CD database file
#
# Track frame offsets:
#	150
#	11529
#	23896
#	36166
#	49279
#	63165
#	77002
#	89939
#	103818
#	116942
#	130628
#	144859
#	160283
#	173649
#	186076
#	198355
#	211848
#	225047
#	238739
#	253124
#
# Disc length: 3569 seconds
#
# Revision: 0
# Processed by: cddbd v1.5.2PL0 Copyright (c) Steve Scherf et al.
# Submitted via: CDex 1.70beta2
#
DISCID=0c0def14
DTITLE=Various Artist - Classic Blues [CD2]
DYEAR=2019
DGENRE=Blues
TTITLE0=Cross Road Blues - Robert Johnson
TTITLE1=Me And My Chauffeur Blues - Memphis Minnie
TTITLE2=Junker Blues - Champion Jack Dupree
TTITLE3=Catfish Blues - Robert Petway
TTITLE4=Barrelhouse Boogie - Pete Johnson And Albert Ammons
TTITLE5=Key To The Highway - Big Bill Broonzy
TTITLE6=Worried Life Blues - Big Maceo
TTITLE7=Where Did You Sleep Last Night? (In The Pines) - Leadbelly
TTITLE8=That's All Right - Arthur 'Big Boy'  Crudup
TTITLE9=Call It Stormy Monday (But Tuesday Is Just As Bad) - T-Bone Walker
TTITLE10=Boogie Chillen - John Lee Hooker
TTITLE11=Baby Please Don't Go - Big Joe Williams
TTITLE12=Black Cat Bone - Lightnin' Hopkins
TTITLE13=Dust My Broom (I Believe My Time Ain't Long) - Elmore James
TTITLE14=Juke - Little Walter
TTITLE15=Three O'Clock Blues - B.B. King
TTITLE16=Mean Old World -Little Walter
TTITLE17=The Things That I Used To Do - Guitar Slim
TTITLE18=Reconsider Baby - Lowell Fulson
TTITLE19='Bout The Break Of Day - Junior Wells
EXTD=YEAR: 2019
EXTT0=
EXTT1=
EXTT2=
EXTT3=
EXTT4=
EXTT5=
EXTT6=
EXTT7=
EXTT8=
EXTT9=
EXTT10=
EXTT11=
EXTT12=
EXTT13=
EXTT14=
EXTT15=
EXTT16=
EXTT17=
EXTT18=
EXTT19=
PLAYORDER=
